# xmcd CD database file
#
# Track frame offsets:
#	150
#	24004
#	36626
#	62727
#	76572
#	91853
#	99232
#	120715
#	134624
#	156982
#	169041
#	190486
#	201162
#	214545
#	230209
#	239885
#	252811
#	271023
#	287462
#	305998
#
# Disc length: 4273 seconds
#
# Revision: 0
# Processed by: cddbd v1.5.2PL0 Copyright (c) Steve Scherf et al.
# Submitted via: CDex 1.70beta2
#
DISCID=1b10af14
DTITLE=Ahmad Jamal - Happy Moods
DYEAR=1960
DGENRE=Jazz
TTITLE0=Little old lady
TTITLE1=For all we know
TTITLE2=Pavanne
TTITLE3=Excerpt from the blues
TTITLE4=You'd be so easy to love
TTITLE5=Time on my hands
TTITLE6=Raincheck
TTITLE7=I'll never stop loving you
TTITLE8=Speak low
TTITLE9=Rhumba no
TTITLE10=Ahmad's waltz
TTITLE11=Valentina
TTITLE12=Yesterdays
TTITLE13=Tempo for two
TTITLE14=Hallelujah
TTITLE15=It's a wonderful world
TTITLE16=Baia
TTITLE17=You came a long way from St. Louis
TTITLE18=Lover man
TTITLE19=Who care's
EXTD=YEAR: 1960
EXTT0=
EXTT1=
EXTT2=
EXTT3=
EXTT4=
EXTT5=
EXTT6=
EXTT7=
EXTT8=
EXTT9=
EXTT10=
EXTT11=
EXTT12=
EXTT13=
EXTT14=
EXTT15=
EXTT16=
EXTT17=
EXTT18=
EXTT19=
PLAYORDER=
